<svg width="45" height="44" viewBox="0 0 45 44" fill="none" xmlns="http://www.w3.org/2000/svg">
<path fill-rule="evenodd" clip-rule="evenodd" d="M22.6 34.4667C29.4851 34.4667 35.0666 28.8851 35.0666 22C35.0666 15.1149 29.4851 9.53333 22.6 9.53333C15.7148 9.53333 10.1333 15.1149 10.1333 22C10.1333 28.8851 15.7148 34.4667 22.6 34.4667ZM22.6 44C34.7502 44 44.6 34.1503 44.6 22C44.6 9.84974 34.7502 0 22.6 0C10.4497 0 0.599976 9.84974 0.599976 22C0.599976 34.1503 10.4497 44 22.6 44Z" fill="#6938EF"/>
<path d="M22.8516 22.4816C25.1427 20.1905 28.8573 20.1905 31.1483 22.4816L42.5563 33.8896C44.8474 36.1807 44.8474 39.8952 42.5563 42.1863C40.2652 44.4774 36.5507 44.4774 34.2596 42.1863L22.8516 30.7783C20.5605 28.4873 20.5605 24.7727 22.8516 22.4816Z" fill="#F670C7"/>
<path d="M26.0549 33.9818L33.3003 41.2271C36.7755 39.289 39.6707 36.436 41.6604 32.9938L34.4744 25.8079C33.2122 29.7473 30.044 32.8336 26.0549 33.9818Z" fill="#6519BA"/>
</svg>
