<svg width="45" height="44" viewBox="0 0 45 44" fill="none" xmlns="http://www.w3.org/2000/svg">
<path d="M22.1999 0C10.0496 0 0.199951 9.84974 0.199951 22C0.199951 34.1503 10.0496 44 22.1999 44C33.101 44 42.1502 36.0716 43.8958 25.6667H43.7379C42.1097 31.9925 36.3673 36.6667 29.5333 36.6667C21.4331 36.6667 14.8666 30.1002 14.8666 22C14.8666 13.8998 21.4331 7.33333 29.5333 7.33333C36.3673 7.33333 42.1097 12.0075 43.7379 18.3333H43.8958C42.1502 7.92838 33.101 0 22.1999 0Z" fill="#A4BCFD"/>
<path d="M0.199951 22C0.199951 9.84974 10.0497 0 22.1999 0C33.1009 0 42.1502 7.92838 43.8958 18.3333H29.0712C27.4431 12.0075 21.7007 7.33333 14.8666 7.33333C6.76644 7.33333 0.199951 13.8998 0.199951 22Z" fill="#3538CD"/>
<path d="M0.199951 22C0.199951 34.1503 10.0497 44 22.1999 44C33.1009 44 42.1502 36.0716 43.8958 25.6667H29.0712C27.4431 31.9925 21.7007 36.6667 14.8666 36.6667C6.76644 36.6667 0.199951 30.1002 0.199951 22Z" fill="#3538CD"/>
</svg>
