<svg width="45" height="44" viewBox="0 0 45 44" fill="none" xmlns="http://www.w3.org/2000/svg">
<path d="M16.5143 31.4287C25.193 31.4287 32.2285 24.3932 32.2285 15.7144C32.2285 14.7308 32.1382 13.7683 31.9653 12.8348C31.0318 12.6619 30.0693 12.5715 29.0857 12.5715C20.4069 12.5715 13.3714 19.6071 13.3714 28.2858C13.3714 29.2694 13.4618 30.2319 13.6347 31.1654C14.5682 31.3383 15.5307 31.4287 16.5143 31.4287Z" fill="#175CD3"/>
<path fill-rule="evenodd" clip-rule="evenodd" d="M13.6347 31.1653C6.33116 29.8127 0.799988 23.4095 0.799988 15.7143C0.799988 7.03553 7.83551 0 16.5143 0C24.2094 0 30.6127 5.53118 31.9653 12.8347C31.0318 12.6618 30.0693 12.5714 29.0857 12.5714C20.4069 12.5714 13.3714 19.607 13.3714 28.2857C13.3714 29.2693 13.4618 30.2318 13.6347 31.1653Z" fill="#1570EF"/>
<path fill-rule="evenodd" clip-rule="evenodd" d="M16.5142 31.4286C25.193 31.4286 32.2285 24.3931 32.2285 15.7143C32.2285 14.7307 32.1381 13.7682 31.9653 12.8347C39.2688 14.1873 44.7999 20.5906 44.7999 28.2858C44.7999 36.9645 37.7644 44 29.0856 44C21.3905 44 14.9872 38.4689 13.6346 31.1654C14.5681 31.3382 15.5306 31.4286 16.5142 31.4286Z" fill="#2E90FA"/>
</svg>
